<?xml version="1.0" encoding="UTF-8"?>
<svg width="32px" height="32px" viewBox="0 0 32 32" version="1.1" xmlns="http://www.w3.org/2000/svg" xmlns:xlink="http://www.w3.org/1999/xlink">
    <title>behance</title>
    <g id="Page-1" stroke="none" stroke-width="1" fill="none" fill-rule="evenodd">
        <g id="Desktop-HD" transform="translate(-79.000000, -708.000000)">
            <g id="behance" transform="translate(79.000000, 708.000000)">
                <rect id="Rectangle-Copy-10" fill="#D8D8D8" opacity="0" x="0" y="0" width="32" height="32"></rect>
                <g id="group" transform="translate(7.040000, 10.240000)" fill="#FFFFFF" fill-rule="nonzero">
                    <path d="M16.4266667,1.49333333 L11.2,1.49333333 L11.2,0 L16.4266667,0 L16.4266667,1.49333333 Z M17.7154133,8.96 C17.3853867,9.92842667 16.2004267,11.2 13.9066667,11.2 C11.6114133,11.2 9.75221333,9.90901333 9.75221333,6.96266667 C9.75221333,4.0432 11.4882133,2.5424 13.8334933,2.5424 C16.13472,2.5424 17.5399467,3.87296 17.8468267,5.84714667 C17.9050667,6.22496 17.9282133,6.73418667 17.91776,7.44501333 L11.9242667,7.44501333 C12.0213333,9.84256 14.5249067,9.91797333 15.3499733,8.96 L17.7154133,8.96 Z M11.9765333,5.97333333 L15.6837333,5.97333333 C15.6053333,4.81824 14.83552,4.31648 13.83424,4.31648 C12.7396267,4.31648 12.13408,4.88992 11.9765333,5.97333333 Z M4.82794667,11.19104 L-6.6317322e-16,11.19104 L-6.6317322e-16,0.01568 L5.19157333,0.01568 C9.28032,0.07616 9.35797333,4.08053333 7.22250667,5.17216 C9.80672,6.11296 9.89333333,11.19104 4.82794667,11.19104 Z M2.24,4.48 L4.91605333,4.48 C6.78869333,4.48 7.08586667,2.24 4.68309333,2.24 L2.24,2.24 L2.24,4.48 Z M4.77194667,6.72 L2.24,6.72 L2.24,8.97194667 L4.73461333,8.97194667 C7.01568,8.97194667 6.87605333,6.72 4.77194667,6.72 L4.77194667,6.72 Z" id="Shape"></path>
                </g>
            </g>
        </g>
    </g>
</svg>