<?xml version="1.0" encoding="UTF-8"?>
<svg width="32px" height="32px" viewBox="0 0 32 32" version="1.1" xmlns="http://www.w3.org/2000/svg" xmlns:xlink="http://www.w3.org/1999/xlink">
    <title>dribbble</title>
    <g id="Page-1" stroke="none" stroke-width="1" fill="none" fill-rule="evenodd">
        <g id="Desktop-HD" transform="translate(-113.000000, -708.000000)">
            <g id="dribbble" transform="translate(113.000000, 708.000000)">
                <rect id="Rectangle-Copy-9" fill="#D8D8D8" opacity="0" x="0" y="0" width="32" height="32"></rect>
                <g id="group" transform="translate(7.040000, 7.040000)" fill="#FFFFFF" stroke="#FFFFFF" stroke-width="0.5">
                    <path d="M8.96,0 C4.0135424,0 0,4.0135424 0,8.96 C0,13.9064576 4.0135424,17.92 8.96,17.92 C13.896745,17.92 17.92,13.9064576 17.92,8.96 C17.92,4.0135424 13.896745,0 8.96,0 Z M14.8782592,4.13014784 C15.947241,5.4323584 16.5886336,7.09415168 16.6080768,8.89197568 C16.3554048,8.84337664 13.8287206,8.32833792 11.2826112,8.64901632 C11.2242995,8.52269824 11.1757005,8.38663168 11.1174067,8.25058304 C10.9619149,7.8813056 10.7869798,7.5022976 10.6120627,7.1427328 C13.4302874,5.99601408 14.7130547,4.34395136 14.8782592,4.13014784 Z M8.96,1.32164838 C10.9036032,1.32164838 12.6820019,2.050496 14.0327936,3.24581376 C13.896745,3.44017408 12.7402957,4.985344 10.0192691,6.00572672 C8.76563968,3.70255872 7.3759616,1.8172672 7.162176,1.52572672 C7.7355264,1.3896745 8.33805056,1.32164838 8.96,1.32164838 Z M5.7044736,2.04078336 C5.90854656,2.31288064 7.2690688,4.20790272 8.54212352,6.46247168 C4.9659008,7.41483008 1.80755456,7.39543464 1.46741862,7.39543464 C1.96302848,5.02421248 3.56651008,3.05145344 5.7044736,2.04078336 Z M1.30221235,8.96971264 C1.30221235,8.89197568 1.30221235,8.81423872 1.30221235,8.73648384 C1.6326249,8.74619648 5.3449088,8.79479552 9.16407296,7.6480768 C9.38758912,8.07566592 9.59166208,8.51296768 9.7860224,8.95028736 C9.68884224,8.9794432 9.58194944,9.00859904 9.48476928,9.03773696 C5.53926912,10.3108096 3.44017408,13.7898522 3.26525696,14.0813926 C2.050496,12.730583 1.30221235,10.932759 1.30221235,8.96971264 Z M8.96,16.6177894 C7.19133184,16.6177894 5.5586944,16.0152653 4.26619648,15.0045952 C4.40226304,14.7227853 5.9571456,11.7296256 10.2719232,10.2233421 C10.2913664,10.2136294 10.301079,10.2136294 10.3205222,10.2038989 C11.3992166,12.9929677 11.8365363,15.3350042 11.9531418,16.0055526 C11.0299392,16.4039859 10.0192691,16.6177894 8.96,16.6177894 Z M13.2262144,15.3058662 C13.1484595,14.8393907 12.7403136,12.604247 11.7393562,9.85406464 C14.1397043,9.47505664 16.2387814,10.0970061 16.5011661,10.1844736 C16.1707571,12.3127066 14.9462835,14.149417 13.2262144,15.3058662 Z" id="Shape"></path>
                </g>
            </g>
        </g>
    </g>
</svg>