<?xml version="1.0" encoding="UTF-8"?>
<svg width="32px" height="32px" viewBox="0 0 32 32" version="1.1" xmlns="http://www.w3.org/2000/svg" xmlns:xlink="http://www.w3.org/1999/xlink">
    <title>instagram</title>
    <g id="Page-1" stroke="none" stroke-width="1" fill="none" fill-rule="evenodd">
        <g id="Desktop-HD" transform="translate(-45.000000, -708.000000)">
            <g id="instagram" transform="translate(45.000000, 708.000000)">
                <rect id="ViewBox" fill="#D8D8D8" opacity="0" x="0" y="0" width="32" height="32"></rect>
                <path d="M15.9977585,11.4026539 C13.4536396,11.4026539 11.4004123,13.4558811 11.4004123,16 C11.4004123,18.5441189 13.4536396,20.5973461 15.9977585,20.5973461 C18.5418774,20.5973461 20.5951046,18.5441189 20.5951046,16 C20.5951046,13.4558811 18.5418774,11.4026539 15.9977585,11.4026539 Z M15.9977585,18.9879388 C14.3524869,18.9879388 13.0098197,17.6452716 13.0098197,16 C13.0098197,14.3547284 14.3524869,13.0120612 15.9977585,13.0120612 C17.6430301,13.0120612 18.9856973,14.3547284 18.9856973,16 C18.9856973,17.6452716 17.6430301,18.9879388 15.9977585,18.9879388 Z M20.7833918,10.1429219 C20.1893905,10.1429219 19.7097064,10.6226068 19.7097064,11.2166082 C19.7097064,11.8106095 20.1893905,12.2902936 20.7833918,12.2902936 C21.3773932,12.2902936 21.8570781,11.812851 21.8570781,11.2166082 C21.8574348,10.9317396 21.7444295,10.6584358 21.5429969,10.4570031 C21.3415642,10.2555705 21.0682604,10.1425652 20.7833918,10.1429219 Z M24.9593333,16 C24.9593333,14.762684 24.9705409,13.5365756 24.9010539,12.3015011 C24.831567,10.8669319 24.5043058,9.59375169 23.4552771,8.54472292 C22.4040068,7.49345264 21.1330681,7.16843304 19.6984989,7.0989461 C18.4611829,7.02945915 17.2350745,7.04066672 16,7.04066672 C14.762684,7.04066672 13.5365756,7.02945915 12.3015011,7.0989461 C10.8669319,7.16843304 9.59375169,7.49569416 8.54472292,8.54472292 C7.49345264,9.5959932 7.16843304,10.8669319 7.0989461,12.3015011 C7.02945915,13.5388171 7.04066672,14.7649255 7.04066672,16 C7.04066672,17.2350745 7.02945915,18.4634244 7.0989461,19.6984989 C7.16843304,21.1330681 7.49569416,22.4062483 8.54472292,23.4552771 C9.5959932,24.5065474 10.8669319,24.831567 12.3015011,24.9010539 C13.5388171,24.9705409 14.7649255,24.9593333 16,24.9593333 C17.237316,24.9593333 18.4634244,24.9705409 19.6984989,24.9010539 C21.1330681,24.831567 22.4062483,24.5043058 23.4552771,23.4552771 C24.5065474,22.4040068 24.831567,21.1330681 24.9010539,19.6984989 C24.9727824,18.4634244 24.9593333,17.237316 24.9593333,16 Z M22.9868006,21.2854911 C22.82317,21.6934467 22.6259167,21.9982927 22.3098632,22.3121047 C21.9938097,22.6281582 21.6912052,22.8254115 21.2832496,22.9890421 C20.104213,23.4575186 17.3045614,23.3521674 15.9977585,23.3521674 C14.6909556,23.3521674 11.8890625,23.4575186 10.7100259,22.9912836 C10.3020703,22.827653 9.99722429,22.6303998 9.68341226,22.3143462 C9.36735873,21.9982927 9.17010545,21.6956882 9.0064749,21.2877326 C8.54023989,20.1064545 8.64559107,17.3068029 8.64559107,16 C8.64559107,14.6931971 8.54023989,11.891304 9.0064749,10.7122674 C9.17010545,10.3043118 9.36735873,9.9994658 9.68341226,9.68565378 C9.9994658,9.37184175 10.3020703,9.17234697 10.7100259,9.00871641 C11.8890625,8.54248141 14.6909556,8.64783259 15.9977585,8.64783259 C17.3045614,8.64783259 20.1064545,8.54248141 21.2854911,9.00871641 C21.6934467,9.17234697 21.9982927,9.36960024 22.3121047,9.68565378 C22.6281582,10.0017073 22.8254115,10.3043118 22.9890421,10.7122674 C23.4552771,11.891304 23.3499259,14.6931971 23.3499259,16 C23.3499259,17.3068029 23.4552771,20.1064545 22.9868006,21.2854911 Z" id="Shape" fill="#FFFFFF" fill-rule="nonzero"></path>
            </g>
        </g>
    </g>
</svg>