<?xml version="1.0" encoding="UTF-8"?>
<svg width="32px" height="32px" viewBox="0 0 32 32" version="1.1" xmlns="http://www.w3.org/2000/svg" xmlns:xlink="http://www.w3.org/1999/xlink">
    <title>linkedin</title>
    <g id="Page-1" stroke="none" stroke-width="1" fill="none" fill-rule="evenodd">
        <g id="Desktop-HD" transform="translate(-181.000000, -708.000000)">
            <g id="linkedin" transform="translate(181.000000, 708.000000)">
                <rect id="Rectangle-Copy-8" fill="#D8D8D8" opacity="0" x="0" y="0" width="32" height="32"></rect>
                <g id="group" transform="translate(7.040000, 7.040000)" fill="#FFFFFF" fill-rule="nonzero">
                    <path d="M3.7184,1.86666667 C3.7184,2.89781333 2.8896,3.73333333 1.86666667,3.73333333 C0.843733333,3.73333333 0.0149333333,2.89781333 0.0149333333,1.86666667 C0.0149333333,0.836266667 0.843733333,0 1.86666667,0 C2.8896,0 3.7184,0.836266667 3.7184,1.86666667 Z M3.73333333,5.22666667 L0,5.22666667 L0,17.1733333 L3.73333333,17.1733333 L3.73333333,5.22666667 Z M9.69322667,5.22666667 L5.98378667,5.22666667 L5.98378667,17.1733333 L9.69397333,17.1733333 L9.69397333,10.90208 C9.69397333,7.41514667 14.1956267,7.12992 14.1956267,10.90208 L14.1956267,17.1733333 L17.92,17.1733333 L17.92,9.60885333 C17.92,3.72512 11.25824,3.93941333 9.69322667,6.83573333 L9.69322667,5.22666667 Z" id="Shape"></path>
                </g>
            </g>
        </g>
    </g>
</svg>