<?xml version="1.0" encoding="UTF-8"?>
<svg width="32px" height="32px" viewBox="0 0 32 32" version="1.1" xmlns="http://www.w3.org/2000/svg" xmlns:xlink="http://www.w3.org/1999/xlink">
    <title>medium</title>
    <g id="Page-1" stroke="none" stroke-width="1" fill="none" fill-rule="evenodd">
        <g id="Desktop-HD" transform="translate(-147.000000, -708.000000)">
            <g id="medium" transform="translate(147.000000, 708.000000)">
                <rect id="Rectangle-Copy-11" fill="#D8D8D8" opacity="0" x="0" y="0" width="32" height="32"></rect>
                <path d="M17.1443739,15.9669456 C17.1443739,18.7763004 14.8824031,21.0537195 12.0922728,21.0537195 C9.30214253,21.0537195 7.04,18.7757854 7.04,15.9669456 C7.04,13.1581057 9.30197088,10.88 12.0922728,10.88 C14.8825747,10.88 17.1443739,13.1575908 17.1443739,15.9669456 M22.6867004,15.9669456 C22.6867004,18.6113471 21.5557149,20.7559111 20.160564,20.7559111 C18.765413,20.7559111 17.6344276,18.6113471 17.6344276,15.9669456 C17.6344276,13.3225441 18.7652414,11.1779801 20.1603923,11.1779801 C21.5555433,11.1779801 22.6865287,13.3218575 22.6865287,15.9669456 M24.953649,15.9669456 C24.953649,18.3356812 24.5559418,20.2571034 24.0652015,20.2571034 C23.5744613,20.2571034 23.1769257,18.3361962 23.1769257,15.9669456 C23.1769257,13.597695 23.574633,11.6767877 24.0652015,11.6767877 C24.5557701,11.6767877 24.953649,13.5975234 24.953649,15.9669456" id="Shape" fill="#FFFFFF" fill-rule="nonzero"></path>
            </g>
        </g>
    </g>
</svg>