<?xml version="1.0" encoding="UTF-8"?>
<svg width="32px" height="32px" viewBox="0 0 32 32" version="1.1" xmlns="http://www.w3.org/2000/svg" xmlns:xlink="http://www.w3.org/1999/xlink">
    <title>twitter</title>
    <g id="Page-1" stroke="none" stroke-width="1" fill="none" fill-rule="evenodd">
        <g id="Desktop-HD" transform="translate(-215.000000, -708.000000)">
            <g id="twitter" transform="translate(215.000000, 708.000000)">
                <rect id="Rectangle-Copy-6" fill="#D8D8D8" opacity="0" x="0" y="0" width="32" height="32"></rect>
                <g id="group" transform="translate(7.040000, 8.960000)" fill="#FFFFFF" fill-rule="nonzero">
                    <path d="M5.63565079,14.5825582 C12.3982545,14.5825582 16.0964595,8.98004826 16.0964595,4.12174948 C16.0964595,3.96263647 16.0932123,3.80424506 16.0860564,3.64651511 C16.8039291,3.12756375 17.4278734,2.47992688 17.9200053,1.74269123 C17.2612437,2.03554095 16.5523309,2.23265829 15.808661,2.32153547 C16.567725,1.86638566 17.150478,1.14634816 17.4254079,0.288003812 C16.7150519,0.70911811 15.9283866,1.01519719 15.0907883,1.18044381 C14.4198798,0.465818317 13.4647206,0.0188466517 12.4070941,0.0188466517 C10.3767495,0.0188466517 8.73029667,1.66535966 8.73029667,3.69492251 C8.73029667,3.98344263 8.76258832,4.26402514 8.82566827,4.53324244 C5.76998884,4.3794813 3.06043734,2.91649547 1.24705411,0.691919954 C0.931293553,1.23522535 0.749209576,1.86638566 0.749209576,2.53981976 C0.749209576,3.81536974 1.39828965,4.94142805 2.3853195,5.6001896 C1.78212123,5.58154824 1.21548407,5.41594082 0.72022527,5.14034938 C0.719684069,5.15580367 0.719684069,5.17083702 0.719684069,5.18731358 C0.719684069,6.96786396 1.98699577,8.45448222 3.66928816,8.79134961 C3.36038281,8.87553639 3.03530157,8.92069658 2.69981726,8.92069658 C2.46331254,8.92069658 2.23282116,8.89742495 2.0088242,8.85442956 C2.47690269,10.3152506 3.83417398,11.3782891 5.44334413,11.407995 C4.18499231,12.3943032 2.59981539,12.9817466 0.87699308,12.9817466 C0.580595483,12.9817466 0.287805891,12.9648491 7.37162431e-06,12.9308136 C1.62715742,13.9737675 3.55924401,14.5823176 5.63583119,14.5823176" id="Path"></path>
                </g>
            </g>
        </g>
    </g>
</svg>